<mxfile host="app.diagrams.net" modified="2023-10-24T23:49:02.517Z" agent="Mozilla/5.0 (Macintosh; Intel Mac OS X 10_15_7) AppleWebKit/537.36 (KHTML, like Gecko) Chrome/117.0.0.0 Safari/537.36" version="21.5.2" etag="70dN8tzn-IsBYBb5d0R9" type="github">
  <diagram name="Page-1" id="xsteZ-W28Pp3g2rkncif">
    <mxGraphModel>
      <root>
        <mxCell id="0" />
        <mxCell id="1" parent="0" />
      </root>
    </mxGraphModel>
  </diagram>
</mxfile>
